<?xml version="1.0" encoding="UTF-8" standalone="no"?>
<!DOCTYPE svg PUBLIC "-//W3C//DTD SVG 1.1//EN"
 "http://www.w3.org/Graphics/SVG/1.1/DTD/svg11.dtd">
<!-- Generated by graphviz version 2.38.0 (20140413.2041)
 -->
<!-- Title: Network Pages: 1 -->
<svg width="241pt" height="444pt"
 viewBox="0.00 0.00 240.94 443.60" xmlns="http://www.w3.org/2000/svg" xmlns:xlink="http://www.w3.org/1999/xlink">
<g id="graph0" class="graph" transform="scale(1 1) rotate(0) translate(4 439.6)">
<title>Network</title>
<polygon fill="white" stroke="none" points="-4,4 -4,-439.6 236.937,-439.6 236.937,4 -4,4"/>
<!-- lasagne.layers.conv.Conv2DLayer object at 0x7f1e5dd69090 -->
<g id="node1" class="node"><title>lasagne.layers.conv.Conv2DLayer object at 0x7f1e5dd69090</title>
<polygon fill="#7c9abb" stroke="black" points="-1.42109e-14,-314.9 -1.42109e-14,-356.5 232.937,-356.5 232.937,-314.9 -1.42109e-14,-314.9"/>
<text text-anchor="middle" x="116.468" y="-339.9" font-family="Times,serif" font-size="14.00">Conv2DLayer</text>
<text text-anchor="middle" x="116.468" y="-323.1" font-family="Times,serif" font-size="14.00">Output shape: (None, 64, None, None)</text>
</g>
<!-- lasagne.layers.conv.Conv2DLayer object at 0x7f1e45de7d90 -->
<g id="node6" class="node"><title>lasagne.layers.conv.Conv2DLayer object at 0x7f1e45de7d90</title>
<polygon fill="#7c9abb" stroke="black" points="-1.42109e-14,-236.3 -1.42109e-14,-277.9 232.937,-277.9 232.937,-236.3 -1.42109e-14,-236.3"/>
<text text-anchor="middle" x="116.468" y="-261.3" font-family="Times,serif" font-size="14.00">Conv2DLayer</text>
<text text-anchor="middle" x="116.468" y="-244.5" font-family="Times,serif" font-size="14.00">Output shape: (None, 64, None, None)</text>
</g>
<!-- lasagne.layers.conv.Conv2DLayer object at 0x7f1e5dd69090&#45;&gt;lasagne.layers.conv.Conv2DLayer object at 0x7f1e45de7d90 -->
<g id="edge2" class="edge"><title>lasagne.layers.conv.Conv2DLayer object at 0x7f1e5dd69090&#45;&gt;lasagne.layers.conv.Conv2DLayer object at 0x7f1e45de7d90</title>
<path fill="none" stroke="black" d="M116.468,-314.574C116.468,-306.482 116.468,-296.98 116.468,-288.103"/>
<polygon fill="black" stroke="black" points="119.969,-288.091 116.468,-278.091 112.969,-288.091 119.969,-288.091"/>
</g>
<!-- lasagne.layers.input.InputLayer object at 0x7f1e45f00890 -->
<g id="node2" class="node"><title>lasagne.layers.input.InputLayer object at 0x7f1e45f00890</title>
<polygon fill="#a2cece" stroke="black" points="3.5,-393.5 3.5,-435.1 229.437,-435.1 229.437,-393.5 3.5,-393.5"/>
<text text-anchor="middle" x="116.468" y="-418.5" font-family="Times,serif" font-size="14.00">input, InputLayer</text>
<text text-anchor="middle" x="116.468" y="-401.7" font-family="Times,serif" font-size="14.00">Output shape: (None, 3, None, None)</text>
</g>
<!-- lasagne.layers.input.InputLayer object at 0x7f1e45f00890&#45;&gt;lasagne.layers.conv.Conv2DLayer object at 0x7f1e5dd69090 -->
<g id="edge1" class="edge"><title>lasagne.layers.input.InputLayer object at 0x7f1e45f00890&#45;&gt;lasagne.layers.conv.Conv2DLayer object at 0x7f1e5dd69090</title>
<path fill="none" stroke="black" d="M116.468,-393.174C116.468,-385.082 116.468,-375.58 116.468,-366.703"/>
<polygon fill="black" stroke="black" points="119.969,-366.691 116.468,-356.691 112.969,-366.691 119.969,-366.691"/>
</g>
<!-- lasagne.layers.conv.Conv2DLayer object at 0x7f1e45d6cb10 -->
<g id="node3" class="node"><title>lasagne.layers.conv.Conv2DLayer object at 0x7f1e45d6cb10</title>
<polygon fill="#7c9abb" stroke="black" points="-1.42109e-14,-157.7 -1.42109e-14,-199.3 232.937,-199.3 232.937,-157.7 -1.42109e-14,-157.7"/>
<text text-anchor="middle" x="116.468" y="-182.7" font-family="Times,serif" font-size="14.00">Conv2DLayer</text>
<text text-anchor="middle" x="116.468" y="-165.9" font-family="Times,serif" font-size="14.00">Output shape: (None, 64, None, None)</text>
</g>
<!-- lasagne.layers.conv.Conv2DLayer object at 0x7f1e45d8b6d0 -->
<g id="node4" class="node"><title>lasagne.layers.conv.Conv2DLayer object at 0x7f1e45d8b6d0</title>
<polygon fill="#7c9abb" stroke="black" points="-1.42109e-14,-79.1 -1.42109e-14,-120.7 232.937,-120.7 232.937,-79.1 -1.42109e-14,-79.1"/>
<text text-anchor="middle" x="116.468" y="-104.1" font-family="Times,serif" font-size="14.00">Conv2DLayer</text>
<text text-anchor="middle" x="116.468" y="-87.3" font-family="Times,serif" font-size="14.00">Output shape: (None, 64, None, None)</text>
</g>
<!-- lasagne.layers.conv.Conv2DLayer object at 0x7f1e45d6cb10&#45;&gt;lasagne.layers.conv.Conv2DLayer object at 0x7f1e45d8b6d0 -->
<g id="edge4" class="edge"><title>lasagne.layers.conv.Conv2DLayer object at 0x7f1e45d6cb10&#45;&gt;lasagne.layers.conv.Conv2DLayer object at 0x7f1e45d8b6d0</title>
<path fill="none" stroke="black" d="M116.468,-157.374C116.468,-149.282 116.468,-139.78 116.468,-130.903"/>
<polygon fill="black" stroke="black" points="119.969,-130.891 116.468,-120.891 112.969,-130.891 119.969,-130.891"/>
</g>
<!-- lasagne.layers.conv.Conv2DLayer object at 0x7f1e45de7110 -->
<g id="node5" class="node"><title>lasagne.layers.conv.Conv2DLayer object at 0x7f1e45de7110</title>
<polygon fill="#7c9abb" stroke="black" points="3.5,-0.5 3.5,-42.1 229.437,-42.1 229.437,-0.5 3.5,-0.5"/>
<text text-anchor="middle" x="116.468" y="-25.5" font-family="Times,serif" font-size="14.00">output, Conv2DLayer</text>
<text text-anchor="middle" x="116.468" y="-8.7" font-family="Times,serif" font-size="14.00">Output shape: (None, 1, None, None)</text>
</g>
<!-- lasagne.layers.conv.Conv2DLayer object at 0x7f1e45d8b6d0&#45;&gt;lasagne.layers.conv.Conv2DLayer object at 0x7f1e45de7110 -->
<g id="edge5" class="edge"><title>lasagne.layers.conv.Conv2DLayer object at 0x7f1e45d8b6d0&#45;&gt;lasagne.layers.conv.Conv2DLayer object at 0x7f1e45de7110</title>
<path fill="none" stroke="black" d="M116.468,-78.7743C116.468,-70.6819 116.468,-61.1803 116.468,-52.3033"/>
<polygon fill="black" stroke="black" points="119.969,-52.2913 116.468,-42.2913 112.969,-52.2914 119.969,-52.2913"/>
</g>
<!-- lasagne.layers.conv.Conv2DLayer object at 0x7f1e45de7d90&#45;&gt;lasagne.layers.conv.Conv2DLayer object at 0x7f1e45d6cb10 -->
<g id="edge3" class="edge"><title>lasagne.layers.conv.Conv2DLayer object at 0x7f1e45de7d90&#45;&gt;lasagne.layers.conv.Conv2DLayer object at 0x7f1e45d6cb10</title>
<path fill="none" stroke="black" d="M116.468,-235.974C116.468,-227.882 116.468,-218.38 116.468,-209.503"/>
<polygon fill="black" stroke="black" points="119.969,-209.491 116.468,-199.491 112.969,-209.491 119.969,-209.491"/>
</g>
</g>
</svg>
